<?xml version="1.0" standalone="no"?>
<!DOCTYPE svg PUBLIC "-//W3C//DTD SVG 20010904//EN"
 "http://www.w3.org/TR/2001/REC-SVG-20010904/DTD/svg10.dtd">
<svg version="1.0" xmlns="http://www.w3.org/2000/svg"
 width="202.000000pt" height="46.000000pt" viewBox="0 0 202.000000 46.000000"
 preserveAspectRatio="xMidYMid meet">

<g transform="translate(0.000000,46.000000) scale(0.100000,-0.100000)"
fill="#000000" stroke="none">
<path d="M172 398 l-42 -43 0 28 c0 17 -5 27 -15 27 -11 0 -15 -11 -15 -42 0
-36 -6 -48 -42 -85 -36 -36 -39 -44 -28 -58 12 -14 24 -6 104 74 l91 90 83
-89 c46 -50 88 -90 93 -90 5 0 12 7 16 16 4 11 -24 46 -93 115 -54 54 -101 99
-104 99 -3 0 -24 -19 -48 -42z"/>
<path d="M142 278 l-83 -84 3 -85 3 -84 155 0 155 0 2 85 3 85 -78 83 -77 83
-83 -83z m126 -20 c17 -17 15 -48 -3 -48 -7 0 -18 8 -24 18 -9 16 -11 16 -26
1 -16 -15 -14 -19 19 -44 54 -41 44 -89 -22 -110 -44 -13 -98 46 -57 62 9 3
22 -2 29 -12 8 -11 20 -16 29 -12 22 8 13 28 -23 49 -39 22 -40 59 -4 87 30
23 64 27 82 9z"/>
</g>
</svg>
